<svg xmlns="http://www.w3.org/2000/svg" width="294" height="103.529" viewBox="0 0 294 103.529">
  <g id="header_logo" transform="translate(-24 -192.152)">
    <g id="logo" transform="translate(23.98 210.321)">
      <path id="パス_1576" data-name="パス 1576" d="M144.711,13.706c.465.426.625,1.2,1.117,1.556.559.412,1.476.4,1.981.878,1.1,1.011.984,3.4,2.66,3.537-.559-2.633-1.383-4.974-1.33-8.192-1.715-1.237-2.46-3.444-2.872-5.971-1.8-.572-2.208-2.513-3.763-3.325-.652,1.064-2.992,0-3.763.452A4.773,4.773,0,0,0,137.2,8.174c2.061,2.048,5.24,3.458,7.527,5.532M141.493,8.2a.066.066,0,0,0,.04-.013,3.573,3.573,0,0,1,4.309,2.872c-1.29-1.077-4.029-.692-4.216-2.872-.027-.013-.066,0-.093,0a.134.134,0,0,1-.04.013c-.253.12-.412.745-.519.2a1.9,1.9,0,0,1,.519-.2" transform="translate(45.141 0.72)" fill="#357a3b"/>
      <path id="パス_1577" data-name="パス 1577" d="M165.552,35.177c-4.2,1.237-7.793-1.077-11.29-.452-.066-.439-.6-.426-.665-.878.851-.186.12-1.942.665-2.447,2.726-.678,4.854,0,7.3-.439-.386-1.064-.678-.891-.439-2.434-2.886-1.051-5.226-.412-8.4-.878-.426-.891-1.011-2.168,0-2.872,2.287.745,4.428-1.33,5.984-.226.851-.824,2.726-.652,2.872-2.207-.4-1.051-1.609.04-1.769-1.1.186-.186,1.676.186,1.556-.878-1.715-.492-4.521.093-6.2-.439a17.979,17.979,0,0,0-.665-6.862,16.494,16.494,0,0,0,1.556-4.867c2.952-.731,5.439-1.942,6.636-4.428-.785-.439-.8.279-1.755.213.093-.7.692-.931.652-1.769-2.886-.08-3.976,1.636-6.849,1.556-5.492,2.58-1.7,10.678-2.886,16.37-3.019-.133-4.761-.2-7.527-.439A3.662,3.662,0,0,0,143,21.24c-.758-.279-1.9-.16-2.434-.665-1.237.851-1.33,3.258-.665,4.867,2.234-1.09,6.636-1.848,9.96-.213-.239,1.13.093,1.45-.226,2.434-2.766.864-6.33-1.263-9.069.439a4.181,4.181,0,0,0,0,3.976c1.09-.692,1.6-.133,2.886,0,1.157-1.476,4.8-1.968,5.971-.452.559.731-.452,1.915-.226,2.886-1.942.878-5.652-1.037-7.966-.439-1.809.465-3.59,3.63-1.543,4.867,1.582.332,1.662-.838,2.66-1.1,1.529.6,5.718-.492,7.075,1.343a17.3,17.3,0,0,0,.213,3.524c.319,5.466-1.9,12.314,4.428,11.5,3.231-4.109-1.622-11.716.665-15.479,2.859-.8,4.774.918,7.075.665,2.686-.293,3.723-3.923,6.862-3.75-.053-.931.293-.864,0-1.556a4.572,4.572,0,0,0-3.085,1.1" transform="translate(45.763 0.726)" fill="#357a3b"/>
      <path id="パス_1578" data-name="パス 1578" d="M140.469,6.71a3,3,0,0,0-.519.2c.106.545.279-.093.519-.2" transform="translate(46.151 2.21)" fill="#357a3b"/>
      <path id="パス_1579" data-name="パス 1579" d="M114.7,42.548c-.8.665-.027,1.543-1.1,1.769-.492-.027-.093-.931-.226-1.33a9.2,9.2,0,0,1-2.42,1.995,28.756,28.756,0,0,0-7.527-1.33c-.386-1.4-2.487-.465-3.1-1.995-2.168.093-2.886-1.25-5.093-1.1-.545-1.516-2.447-1.3-3.311-2.66-1.543-2.367-.838-6.8.439-8.857,5.067,1.436,7.873-1.223,12.607-.439a10.359,10.359,0,0,1,2.208-3.325,4.192,4.192,0,0,0-6.2-1.1c-3.138-1.144-8.617,1.064-11.051-.439,1.21-1.7-.053-3.8.213-5.984.16-1.223,1.17-2.247,1.1-3.311-.027-.479-.864-1.25-1.1-1.995-.771-2.327-.439-6.117-3.75-5.745-1.051,1.024-1.4,2.753-1.782,4.428.891,1.3,1,4.309-.226,5.306.931,2.274.532,4.88.226,7.952-5.439,0-7.926.665-14.6.226-1.543,1.037-3.471,1.7-3.1,4.641a6.3,6.3,0,0,1,2.221,1.33c3.91-1.9,10.865-2.327,15.705-1.33,1.064-.239,1.064-.692,1.995-.665.2.386.811.359.878.891.426,4.362-.984,11.3,1.1,15.492,1.077.266.745-.878,1.556-.878,2.952,2.088,6.29,2.739,10.838,4.189,3.63,1.157,6.423,3.83,9.508,3.1,2.979-.692,6.609-3.71,8.192-5.745-1.051-1.636-.226-3.458.891-5.319a50.637,50.637,0,0,0-5.093,2.208" transform="translate(22.043 2.198)" fill="#357a3b"/>
      <path id="パス_1580" data-name="パス 1580" d="M23.332,23.751c1.21,1.1,2.181,3.125,4.2,3.311.412-4.8.426-9.109.452-17.035C22.162,8.3,14.316,11.184,12.72,15.12c2.593,1.317,4.242,3.564,6.862,4.867.8,1.715,2.447,2.553,3.763,3.763m2.66-6.2c.146,2.487.4,4.827.439,6.862-1.5-1.317-5.505-3.936-6.184-5.971-1.436-4.3,4.734-4.322,5.758-.891" transform="translate(4.189 3.136)" fill="#357a3b"/>
      <path id="パス_1581" data-name="パス 1581" d="M25.056,26.654c2.3-.718,3.271-2.766,4.867-4.2,1.915-.864,2.833-2.407,4.641-3.976,1.09-.944,4.375-2.766,4.428-4.2.066-1.862-2.859-2.7-4.428-3.325-2.992-1.184-6.476-2.261-9.3-.878.186,4.229-.585,11.982-.213,16.6m7.088-10.625c-.08,4.229-4.056,6.6-6.21,8.192.332-4,1.383-12.248,6.21-8.192" transform="translate(8.223 3.105)" fill="#357a3b"/>
      <path id="パス_1582" data-name="パス 1582" d="M80.952,18.544a4.4,4.4,0,0,0-2.221-6.184c-.652.293-.239,1.676-.665,2.207-3.5.7-5.638,1.676-10.173,1.543-.465.864-1.476,1.184-1.33,2.66a10.047,10.047,0,0,0,2.66,1.755c2.766-1.649,8.444,0,11.729-1.995" transform="translate(21.943 4.074)" fill="#357a3b"/>
      <path id="パス_1583" data-name="パス 1583" d="M87.8,18.637a87.567,87.567,0,0,0,13.95.439c.16-1.25,1.476-1.33,1.981-2.221-.585-1.117-2.061-1.33-2.447-2.66-1.636.745-5.386-.146-7.287.226a6.437,6.437,0,0,0-5.532-1.543c-3.325,1.237-2.992,3.777-.665,5.758" transform="translate(28.363 4.22)" fill="#357a3b"/>
      <path id="パス_1584" data-name="パス 1584" d="M139.377,20.774c.918-1.3,1.051-4.468-.891-5.545-1.981.665-4.548-.957-6.862-.878-3.311.12-5.891,3.3-4.2,6.423,2.753,1.4,9.6,3.311,11.942,0" transform="translate(41.844 4.73)" fill="#357a3b"/>
      <path id="パス_1585" data-name="パス 1585" d="M40.857,13.738c-2.62-.452-5.638,4.016-8.192,6.2-2.726,2.327-6.13,3.95-6.636,6.423,4.428.971,8.724.186,13.059,0,3.325-.146,6.317.7,8.843-.678a40.448,40.448,0,0,0-.878-5.08c-2.008-2.394-3.165-6.343-6.184-6.862M39.089,24.363c-2.54,1.4-6.955.7-10.4.878,2.008-1.981,7.061-7.713,10.625-5.532a2.749,2.749,0,0,1-.226,4.654" transform="translate(8.579 4.518)" fill="#357a3b"/>
      <path id="パス_1586" data-name="パス 1586" d="M28.051,26.907c-1.343-3.2-6.609-7.673-9.96-10.4-2.753-2.234-5.133-3.737-7.966-.891-1.8,3.152-4.867,6.17-4.2,11.064,8.285.572,16.463,0,22.128.226m-2.66-1.769c-3.63.332-9.6.678-12.394-1.1-1.317-8.3,10.865-2.646,12.394,1.1" transform="translate(1.916 4.634)" fill="#357a3b"/>
      <path id="パス_1587" data-name="パス 1587" d="M142.258,25.215c-.2-1.157.093-1.609-.226-2.434a7.794,7.794,0,0,0-1.995-1.1c-4.056.279-10.279-1.649-14.389,0a3.559,3.559,0,0,0-1.1,4.428,18.742,18.742,0,0,0,6.636,1.769c3.511,4.548-1.782,14.176,4.641,17.261,2.154-1.5,1.21-5.825,1.556-8.631.984,1.29,1.157,3.936,2.872,4.2,1.051.173,1.277-.824,2.646-.878-.093-4.774-4.92-6.888-5.08-11.729,1.769-.665,2.9-1.968,4.415-2.886" transform="translate(40.944 6.924)" fill="#357a3b"/>
      <path id="パス_1588" data-name="パス 1588" d="M230.739,36.139a5.308,5.308,0,0,0-3.989,0c.04-.824,1.569-.2,1.33-1.33-3.63.293-5.7,4.029-9.947,4.428-4.322-2.646-11.476-1.463-9.96-10.173.6.16.439-.439.878-.439,2.833,1,6.33-1.5,3.989-3.763-3.351-.652-8.87-.439-12.607-.665-1.423-1.45-3.989-.585-5.093.665a7.454,7.454,0,0,0,0,2.872c.891.638,2.673.426,3.085,1.556-.811,1.17-2.646,1.33-3.085,2.886-2.726-.16-2.965,3.285-3.989,5.08,1.184.439.758,2.487,1.981,2.886,3.085-2.088,5.12-5.2,7.753-7.753a17.252,17.252,0,0,1,.439-2.434c.612-.758,2.633-1.3,3.537-.452-.226,2.38-1.051,8.564,1.33,9.734,5.452.532,8.67,3.285,12.846,5.08.426-.838,1.317-.226,2.434-.439,1.41-.266,4.987-2.141,6.862-3.325,1.942-1.2,2.779-2.606,2.207-4.428" transform="translate(63.104 7.729)" fill="#357a3b"/>
      <path id="パス_1589" data-name="パス 1589" d="M82.328,24.173c-.465.678-.093,1.556-.452,2.447-.505,1.29-3.524,3.431-4.2,4.641-.279.505.027.811-.226,1.1-.785.944-2.819,2.567-3.989,2.434a4.263,4.263,0,0,1-5.306,1.769c-.811.6-.16,1.569-.226,2.646,2.3.346,4.495.7,6.862,1.1C77.9,39.094,79,36.3,81.211,34.12c.585-.572,1.21-.745,1.543-1.33,1.011-1.729.665-4.349,1.543-6.636-.824-.505-.665-1.981-1.995-1.995" transform="translate(22.336 7.966)" fill="#357a3b"/>
      <path id="パス_1590" data-name="パス 1590" d="M47.044,23.72a98.706,98.706,0,0,1-17.261.226c-1.1-.066-3.072-.266-3.763.891,1.543,3.989,6.529,6.277,8.631,10.625,1,2.061.452,4.774,2.872,5.971,6.13-2.979,10.08-9.881,10.386-17.261-.6.16-.439-.439-.878-.439M41.06,29.7c-.479,2.9-5.067,3.4-7.513,1.769C31.18,29.9,30.156,27.151,28.454,25.5c2.859.532,13.538-1.41,12.607,4.2" transform="translate(8.575 7.821)" fill="#357a3b"/>
      <path id="パス_1591" data-name="パス 1591" d="M23.377,31.36c1.011-1.037,2.128-2.048,3.1-3.1.891-.971,2.128-2.194,2.207-3.537-.811-.824-2.314-.718-3.311-.665-6.463.372-14.974.027-19.482.665.04,8.3,4.388,14.189,10.851,16.822.758-5.08,3.684-7.181,6.636-10.186m-8.418,1.995c-.864-1.09-2.008-2.314-1.995-3.763.027-4.747,8.883-3.4,13.059-3.976,1.024.665-1.21,1.277-1.1,2.434a47.466,47.466,0,0,1-6.862,5.08,10.819,10.819,0,0,1-3.1.226" transform="translate(1.936 7.921)" fill="#357a3b"/>
      <path id="パス_1592" data-name="パス 1592" d="M31.941,28.871c-2.141-.585-2.234-3.231-4.428-3.763-.053-.173-.186-.253-.439-.226-1.21.652-1.277,1.7-2.208,2.872-2.606,3.218-7.74,7.061-8.857,9.508-2.62,5.745,4.4,7.314,10.625,7.3a26.521,26.521,0,0,0,8.843-1.1c1.037-.386,3.152-1.928,3.325-2.872s-.585-1.835-.878-2.646c-1.529-4.229-3.936-5.665-5.971-9.069m1.1,6.636c-.532,2.593-8.631,4.229-10.838,1.33-1.862-2.434,3.856-9.189,5.306-9.282,1.5,1.356,6.277,4.3,5.532,7.966" transform="translate(5.088 8.202)" fill="#357a3b"/>
      <path id="パス_1593" data-name="パス 1593" d="M128.478,27.49c.479,3.83-2.088,7.766-2.66,11.064-.266,1.609-.239,4.388,2.008,4.867a2.315,2.315,0,0,1,2.208-1.543c2.021-3.391,1.423-8.577,1.317-13.724-.8.053-1.676-.519-2.872-.665" transform="translate(41.453 9.064)" fill="#357a3b"/>
      <path id="パス_1594" data-name="パス 1594" d="M199.84,26.609c.878.226.731,1.476,1.769,1.543,3.364.027,8.045-1.011,13.272-.878.505-1.356.346-2.141.665-3.989a31.786,31.786,0,0,0-14.827.452c-.572-1.237-.066-3.125.878-3.551,3.71,1.476,15.492-2.394,16.383,2.221.133.785,0,1.237-.665,1.543.971,1.144,2.261,2.633,1.33,4.428,1.184.439.16-1.33,1.33-.891-.4,1.769.532,1.29.226,2.646-.785-.04-.971-1.13-1.556-.213.718,1.556,2.753.412,3.325-.652a1.089,1.089,0,0,0,1.1.878,3.869,3.869,0,0,0-.213-1.543c.559.745.971-.053,1.769-.226-1.622-5.718-1.835-11.782-7.513-14.163-2.194,1.9-6.317.771-9.3.665-1.051-4.92,5.093-4.375,3.1-8.843-2.513-1.516-5.865-2.9-8.843-2.66-3.271,4.442,5.532,6.317,2.646,11.955-7.74-.891-7.713,6.011-10.173,10.4-.625-2.42-3.484-.452-5.532-1.33,1.636-2.726,6.037-3.843,4.867-8.631-.718-.2-.452.572-.891.665-.213-.532-.891-.585-.665-1.543-4.455,1.024-11.051-5.386-12.607,1.33,2.9,2.194,2.753,7.434,4.2,11.064-.372,2.287-.053,5.266-1.117,6.849-.16.612.439.452.439.878-1.13,3.3-4.043,11.317-2.434,13.95.918.027,1.516-1.184,2.646-1.33.346.239.465.718,1.1.678,1.37-3.138.532-6.343,1.769-9.083.346-.758,1.383-1.09,2.208-1.981,1.117-1.21,1.489-3.045,2.221-3.976.173-.226.718-.16.878-.452.652-1.1.7-2.606,1.33-3.537.4-.6,1.33-.718,1.556-1.556-.346,1.609-.372,3.79.439,4.854,1.463-.2,1.636.878,2.872.891.625-2.194.027-5.559,1.995-6.862M185.89,20.851a16.035,16.035,0,0,0-1.1-3.1,31.262,31.262,0,0,1,3.976-.226c-.213,1.011-1.25,3.005-2.872,3.311m1.995,9.734c-.838-1.995-.811-4.814,1.543-3.763-.106,1.662-1.157,2.38-1.543,3.763" transform="translate(59.268 1.102)" fill="#357a3b"/>
      <path id="パス_1595" data-name="パス 1595" d="M5.978,8.816a.693.693,0,0,0-.106.332,26.7,26.7,0,0,1-.585,2.606c1.184,1.822,2.221,3.431,1.543,5.825H6.736c-.053-2.38-2.088-4.867-2.314-5.08-.279-.266-.439-.239-.984.093a1.017,1.017,0,0,1,.319-.652c.239-.253.9-.731,1.25-.519a5.915,5.915,0,0,0-.293-1.981c-.066-.066-.106-.027-.16.027a26.62,26.62,0,0,0-2.314,3.551,4.556,4.556,0,0,1-.253.638,1.451,1.451,0,0,1-1.529-.013,1.562,1.562,0,0,1-.439-.585c.652.146.918.066,1.21-.253.519-.559,3.059-3.989,3.072-4.056a2.374,2.374,0,0,1,.16-.559,3.426,3.426,0,0,1,1.051-.2c.16,0,.559-.04.7.106S6.35,8.27,6,8.842" transform="translate(0 2.631)" fill="#357a3b"/>
      <path id="パス_1596" data-name="パス 1596" d="M10.468,6.047c.053.186.479,1.463.559,1.755a4.988,4.988,0,0,1-.878,4.628l-.08-.04A7.481,7.481,0,0,0,9.51,6.553C9.2,5.954,9,5.981,8.3,6.087a1.676,1.676,0,0,1,.625-.638c.306-.16,1.29-.266,1.463.08a3.5,3.5,0,0,1,.08.519m4.588,2.207c-.106.239-.585,1.263-.678,1.463-.106.239-.146.279-.186.293-.226.12-1.157-.492-1.263-.718a5.662,5.662,0,0,1-.133-.652c-.093-.293-.678-1.609-1.024-2.314a13.33,13.33,0,0,0-1.13-1.942c-.253-.173-.7-.053-.918,0a1.272,1.272,0,0,1,.532-.625c.346-.16,1.463-.293,1.649.066a5.549,5.549,0,0,1,.106.678c.133.465,1.29,3.085,1.6,3.7.04.066.093.133.16.106A11.639,11.639,0,0,0,15.84,3.641l.093.027a8.159,8.159,0,0,1-.864,4.6" transform="translate(2.731 1.184)" fill="#357a3b"/>
      <path id="パス_1597" data-name="パス 1597" d="M24.695,3.189c-.066.013-1.117.053-1.25.053a4.561,4.561,0,0,0-.745.066,12.826,12.826,0,0,0-1.423.279c.106.04.545.239.638.293a.3.3,0,0,1,.12.16c0,.08-.013.12-.173.293a1.567,1.567,0,0,0-.12.439A5.915,5.915,0,0,1,18.737,9.24l-.066-.04a8.035,8.035,0,0,0,1.9-4.947.493.493,0,0,0-.239-.412,6.751,6.751,0,0,0-1.995.838,1.257,1.257,0,0,1-.372.16c-.372.04-1.144-.612-1.223-1.144a1.267,1.267,0,0,1,.04-.519,1.188,1.188,0,0,0,1.17.532h.093s2.434-.652,2.54-.665c.811-.226,2.38-.612,2.447-.652a4.883,4.883,0,0,1,.625-.266c.346-.053,1.29.066,1.356.625a.347.347,0,0,1-.346.439M21.942,1.354a24.814,24.814,0,0,0-2.673.652.808.808,0,0,1-.226.053c-.652.106-1.024-.572-1.077-.918V.889a1.65,1.65,0,0,0,1.317.266A9.418,9.418,0,0,0,21.224.6c.04-.027.612-.253.625-.253.332-.053.971.027,1.024.4.053.426-.306.479-.918.6" transform="translate(5.512 0.106)" fill="#357a3b"/>
      <path id="パス_1598" data-name="パス 1598" d="M26.126,6.819a.6.6,0,0,1-.505-.7c.053-.359.226-.439.771-.718a4.188,4.188,0,0,0,1.715-1.423c-.133,1.622-1.13,2.965-1.981,2.846M33.986,4.08c-.08,0-.572-.146-.758-.2a11,11,0,0,0-1.4-.279c-.133-.027-.585-.093-1.1-.146-.226,1.423-.239,1.489-.293,2.048-.053.426-.226,1.848-.239,1.955-.133.824-.505,1.489-.957,1.423-.372-.053-.439-.519-.452-.7-.04-.279-.12-.625-.957-1.423l.04-.08a6.912,6.912,0,0,0,1.1.332c.106,0,.226.027.293-.08a8.429,8.429,0,0,0,.306-1.356c.066-.426.279-1.809.319-2.168a9.3,9.3,0,0,0-2.181.093c-.306.08-.332.093-.439.08a1.567,1.567,0,0,1-.878-1.356,2.114,2.114,0,0,1,.226-.572,1.24,1.24,0,0,0,1.157.9c.319.04,1.848.173,2.208.186.253-1.928.279-2.061-.665-2.5a1.518,1.518,0,0,1,.811-.226c.426.066,1.383.665,1.33,1.051-.013.106-.04.133-.16.319a3.039,3.039,0,0,0-.465,1.436,11.959,11.959,0,0,0,2.048.08,1.6,1.6,0,0,1,.465-.053s1.117.332,1.024.931a.318.318,0,0,1-.386.306m-.811,3.644c-.346-.053-.412-.293-.572-.891a5.569,5.569,0,0,0-1.25-2.34c1.3.532,2.646,1.622,2.487,2.673a.615.615,0,0,1-.652.572" transform="translate(8.442 0)" fill="#357a3b"/>
      <path id="パス_1599" data-name="パス 1599" d="M41.5,8.893c-.16-.08-.4-.226-.426-.239-.545-.319-1.835-.971-2.513-1.33A20.578,20.578,0,0,0,35.737,6.18c-.306-.053-.332-.066-.4-.106a1.738,1.738,0,0,1-.293-1.7,1.8,1.8,0,0,1,.519-.532c-.066.9.093,1.037,1.17,1.582.6.306,4,1.981,4.269,2.021a2.634,2.634,0,0,1,.439.106c.386.2,1.117.771.864,1.277-.133.226-.452.266-.824.066" transform="translate(11.518 1.264)" fill="#357a3b"/>
      <path id="パス_1600" data-name="パス 1600" d="M46.837,10.718c-.173.093-1.29.851-1.543,1.011a4.947,4.947,0,0,1-4.694.412v-.08a7.525,7.525,0,0,0,5.479-2.128c.505-.465.426-.638.106-1.3a1.826,1.826,0,0,1,.8.426c.239.266.612,1.184.332,1.436-.066.053-.426.186-.479.226m-.878,5.013c-.266-.04-1.383-.239-1.6-.266-.266-.04-.306-.066-.332-.093-.186-.2.146-1.25.346-1.436a6,6,0,0,1,.585-.293c.266-.173,1.37-1.09,1.955-1.622A11.134,11.134,0,0,0,48.486,10.4c.093-.293-.133-.692-.226-.878a1.31,1.31,0,0,1,.731.346c.253.279.678,1.33.386,1.609a6.234,6.234,0,0,1-.612.279c-.412.253-2.633,2.1-3.138,2.54-.053.066-.106.133-.053.186.279.306,2.886.864,5.053.731v.106a8.493,8.493,0,0,1-4.668.426" transform="translate(13.384 2.844)" fill="#357a3b"/>
    </g>
    <path id="パス_1733" data-name="パス 1733" d="M-86.83-12.6q.079,0,.2.167.563.756,2.83.756a10.137,10.137,0,0,0,3.041-.51,2.364,2.364,0,0,1,.668-.088,2.835,2.835,0,0,1,.738.088q.87.237.9.817a.646.646,0,0,1-.483.677,7.315,7.315,0,0,1-1.2.167,14.07,14.07,0,0,0-2.663.483,12.989,12.989,0,0,0-2.338.993,4.325,4.325,0,0,1-.58.29q-.123,0-.123-.105a10.571,10.571,0,0,1,1.679-1.468,3.636,3.636,0,0,1-1.969-.7,2.449,2.449,0,0,1-.624-.765,1.418,1.418,0,0,1-.22-.624Q-86.97-12.6-86.83-12.6Zm-.1,5.783q.088,0,.088.141a.727.727,0,0,1-.053.272A4.386,4.386,0,0,0-87.2-4.755,1.734,1.734,0,0,0-86.241-3.1a7.464,7.464,0,0,0,3.489.65,12.394,12.394,0,0,0,3.164-.378,5.116,5.116,0,0,1,1.134-.141A1.609,1.609,0,0,1-77.3-2.6a.785.785,0,0,1,.272.589.8.8,0,0,1-.343.6,1.463,1.463,0,0,1-.721.334,17.129,17.129,0,0,1-1.854.237q-1.1.088-2.32.088a8.887,8.887,0,0,1-3.4-.6A3.83,3.83,0,0,1-87.348-2.61a2.849,2.849,0,0,1-.536-1.819,4.2,4.2,0,0,1,.738-2.232Q-87.041-6.82-86.926-6.82Zm21.767-5.256A3.081,3.081,0,0,1-67.3-14.133a.969.969,0,0,1-.035-.193q0-.2.07-.2a.415.415,0,0,1,.237.141,3.845,3.845,0,0,0,2.988,1.081,3.353,3.353,0,0,1,1.529.237q.773.431.773,1.02,0,.563-.923.563l-.773-.053q-.176,0-.343.009a6.536,6.536,0,0,0-1.169.2,8.587,8.587,0,0,0-1.327.422,1.424,1.424,0,0,1-.422.123q-.141,0-.141-.123,0-.07.29-.272Q-65.274-11.988-65.16-12.076Zm-1.626,3.164a7.837,7.837,0,0,1,2.936-.809,3.044,3.044,0,0,1,2.4,1.169,4.43,4.43,0,0,1,.844,2.936,5.7,5.7,0,0,1-.4,2,6.513,6.513,0,0,1-.8,1.521A7.763,7.763,0,0,1-63.8-.185a8.214,8.214,0,0,1-2.2,1.063,6.98,6.98,0,0,1-.932.237h-.062q-.193,0-.193-.132,0-.1.308-.246A10.493,10.493,0,0,0-65.063-.4a8.7,8.7,0,0,0,1.248-1.283,6.635,6.635,0,0,0,1.371-4.28,4.231,4.231,0,0,0-.4-2.2,1.486,1.486,0,0,0-1.292-.756,2.773,2.773,0,0,0-1.538.633,6.959,6.959,0,0,0-1.345,1.292.963.963,0,0,1-.668.431,1.581,1.581,0,0,1-1.116-.7,1.6,1.6,0,0,1-.413-1.063A1.735,1.735,0,0,1-69-9.132a2.2,2.2,0,0,1,.29-.4.207.207,0,0,1,.176-.105q.132,0,.132.149a.552.552,0,0,1-.009.088q-.009.1-.009.264a1.715,1.715,0,0,0,.018.272.365.365,0,0,0,.413.325A3.529,3.529,0,0,0-66.785-8.912Zm52.935-2.5a2.623,2.623,0,0,0-.193.3,26.63,26.63,0,0,0-.308,3.173q-.211,2.839-.211,4.658a2.451,2.451,0,0,0,.413,1.714,2.7,2.7,0,0,0,1.731.413A8.559,8.559,0,0,0-8.5-2.25,10.219,10.219,0,0,0-5.352-4.676q.2-.237.325-.237.176,0,.176.185a1.532,1.532,0,0,1-.237.5,10.309,10.309,0,0,1-3.129,3.2A8.725,8.725,0,0,1-10.353.035a8.55,8.55,0,0,1-2.663.4,2.739,2.739,0,0,1-2.285-1A3.7,3.7,0,0,1-16-2.936v-.141q.044-1.661.141-4.746.088-2.733.123-3.955a1.423,1.423,0,0,0-.141-.791,1.1,1.1,0,0,0-.545-.4q-.554-.2-.554-.308,0-.167.308-.325a2,2,0,0,1,.826-.158,2.771,2.771,0,0,1,1.731.809,1.25,1.25,0,0,1,.519.923A1.074,1.074,0,0,1-13.851-11.408ZM6.483-2.769A8.921,8.921,0,0,1,9.814-1.441a1.2,1.2,0,0,1,.65.967.663.663,0,0,1-.158.431.422.422,0,0,1-.325.185,1.283,1.283,0,0,1-.809-.308,8.88,8.88,0,0,0-2.689-1.6,1.966,1.966,0,0,1,.018.29Q6.5.536,4.128.536A3.513,3.513,0,0,1,2.15.088a1.539,1.539,0,0,1-.7-1.292A1.4,1.4,0,0,1,2.309-2.47a4.214,4.214,0,0,1,2-.466q.5,0,.949.035-.141-2.874-.141-5.6a3.043,3.043,0,0,0-.167-1.345A.589.589,0,0,0,4.62-10.1a4.1,4.1,0,0,0-.439-.105Q4-10.239,4-10.371a.266.266,0,0,1,.141-.211,1.238,1.238,0,0,1,.756-.255,2.3,2.3,0,0,1,1.389.58q.519.422.519.677a.708.708,0,0,1-.193.51,2.042,2.042,0,0,0-.343,1.345q0,.2.272.2a2.924,2.924,0,0,0,.844-.22,2.77,2.77,0,0,0,.773-.483,1.266,1.266,0,0,1,.861-.29,1.179,1.179,0,0,1,.712.193.5.5,0,0,1,.229.422.5.5,0,0,1-.308.536,9.471,9.471,0,0,1-1.371.448,4.271,4.271,0,0,1-1.151.22,1.212,1.212,0,0,1-.9-.343A35.374,35.374,0,0,0,6.483-2.769ZM5.3-1.96a5.05,5.05,0,0,0-1.151-.149,5.517,5.517,0,0,0-1.529.158Q2-1.749,2-1.3a.715.715,0,0,0,.272.554,2.574,2.574,0,0,0,1.564.325A1.61,1.61,0,0,0,5.016-.853a.777.777,0,0,0,.246-.466,2.216,2.216,0,0,0,.053-.439A1.129,1.129,0,0,0,5.3-1.96Zm15.19-10.116a3.081,3.081,0,0,1-2.145-2.057.969.969,0,0,1-.035-.193q0-.2.07-.2a.415.415,0,0,1,.237.141A3.845,3.845,0,0,0,21.6-13.307a3.353,3.353,0,0,1,1.529.237q.773.431.773,1.02,0,.563-.923.563l-.773-.053q-.176,0-.343.009a6.536,6.536,0,0,0-1.169.2,8.587,8.587,0,0,0-1.327.422,1.424,1.424,0,0,1-.422.123q-.141,0-.141-.123,0-.07.29-.272Q20.372-11.988,20.486-12.076ZM18.861-8.912A7.837,7.837,0,0,1,21.8-9.721a3.044,3.044,0,0,1,2.4,1.169,4.43,4.43,0,0,1,.844,2.936,5.7,5.7,0,0,1-.4,2,6.513,6.513,0,0,1-.8,1.521A7.763,7.763,0,0,1,21.849-.185a8.214,8.214,0,0,1-2.2,1.063,6.98,6.98,0,0,1-.932.237h-.062q-.193,0-.193-.132,0-.1.308-.246A10.493,10.493,0,0,0,20.583-.4a8.7,8.7,0,0,0,1.248-1.283A6.635,6.635,0,0,0,23.2-5.959a4.231,4.231,0,0,0-.4-2.2,1.486,1.486,0,0,0-1.292-.756,2.773,2.773,0,0,0-1.538.633,6.959,6.959,0,0,0-1.345,1.292.963.963,0,0,1-.668.431,1.581,1.581,0,0,1-1.116-.7,1.6,1.6,0,0,1-.413-1.063,1.735,1.735,0,0,1,.211-.809,2.2,2.2,0,0,1,.29-.4.207.207,0,0,1,.176-.105q.132,0,.132.149a.552.552,0,0,1-.009.088q-.009.1-.009.264a1.715,1.715,0,0,0,.018.272.365.365,0,0,0,.413.325A3.529,3.529,0,0,0,18.861-8.912ZM70.41-9.826A3.426,3.426,0,0,1,72-9.29a6.081,6.081,0,0,1,2.408,2.417,4.973,4.973,0,0,1,.65,2.355,2.262,2.262,0,0,1-.272,1.292.756.756,0,0,1-.624.378.727.727,0,0,1-.668-.343,1.662,1.662,0,0,0-.694-.633,3.555,3.555,0,0,0-1.2-.264q-.272-.026-.272-.185,0-.1.343-.193A13.272,13.272,0,0,0,72.932-4.9a.445.445,0,0,0,.29-.431,3.288,3.288,0,0,0-.255-1.09,5.729,5.729,0,0,0-.606-1.2,6.217,6.217,0,0,0-1.872-1.837q-.237-.167-.237-.255Q70.251-9.826,70.41-9.826Zm-3.524,3.2A27.388,27.388,0,0,0,65.751-3.6a5.158,5.158,0,0,0-.237.958,1.114,1.114,0,0,0,.123.483,1.744,1.744,0,0,1,.29.773.751.751,0,0,1-.193.527.638.638,0,0,1-.492.211,2.576,2.576,0,0,1-1.723-.773,5.949,5.949,0,0,1-1.872-3.524A15.49,15.49,0,0,1,61.41-7.9l.018-1.635q0-.483-.018-.861a2.132,2.132,0,0,0-.738-1.354q-.123-.123-.123-.193,0-.185.378-.185a2.114,2.114,0,0,1,1.292.65A2.275,2.275,0,0,1,63.246-9.9a1.339,1.339,0,0,1-.158.694,8.555,8.555,0,0,0-.308,2.593,7.1,7.1,0,0,0,.4,2.522q.334.879.791.879.193,0,.431-.325.018-.018,2.021-3.146.237-.36.352-.36.185,0,.185.132A.624.624,0,0,1,66.885-6.627ZM83.919-5.221a3,3,0,0,1,2.162-1.134q2.118,0,2.25,2.813a4.128,4.128,0,0,0,.308,1.582,1.084,1.084,0,0,0,1.081.615,4.107,4.107,0,0,0,3.041-1.7,9.973,9.973,0,0,0,1.89-3.577q.105-.29.255-.29t.158.325a7.057,7.057,0,0,1-.176,1.046,12.887,12.887,0,0,1-.343,1.274,8.255,8.255,0,0,1-1.872,3.111,4.633,4.633,0,0,1-3.4,1.406,2.086,2.086,0,0,1-1.9-1.081,5.2,5.2,0,0,1-.431-2.355,4.526,4.526,0,0,0-.325-1.986.885.885,0,0,0-.826-.5,2.362,2.362,0,0,0-1.872,1.274,16.352,16.352,0,0,0-1.582,3.278,3.849,3.849,0,0,1-.413.888.617.617,0,0,1-.431.193.953.953,0,0,1-.756-.29A.8.8,0,0,1,80.5-.861a1.766,1.766,0,0,1,.141-.738q.29-.633.633-1.266.554-1.037,1.89-3.524.721-1.336,1.02-1.925,1.714-3.393,1.978-4.069a.916.916,0,0,0,.062-.316.865.865,0,0,0-.2-.527,1.85,1.85,0,0,0-.686-.527q-.176-.079-.176-.158,0-.29.756-.29a2.887,2.887,0,0,1,1.731.861,1.554,1.554,0,0,1,.65,1.134.588.588,0,0,1-.413.563,1.439,1.439,0,0,0-.58.554q-.826,1.3-3.419,5.854Z" transform="translate(209 206.681)" fill="#357a3b"/>
    <text id="お葬式をあなたらしく彩る葬彩" transform="translate(26 290.682)" fill="#7d5a1e" font-size="17" font-family="YuMincho-Demibold, Yu Mincho" font-weight="300" letter-spacing="0.238em"><tspan x="0" y="0">お葬式をあなたらしく彩る葬彩</tspan></text>
  </g>
</svg>
