<svg xmlns="http://www.w3.org/2000/svg" width="29.152" height="29.152" viewBox="0 0 29.152 29.152">
  <g id="電話の受話器のアイコン素材_8" data-name="電話の受話器のアイコン素材 8" transform="matrix(0.985, 0.174, -0.174, 0.985, 2.993, -1.964)">
    <path id="パス_1560" data-name="パス 1560" d="M6.435,1.7A2.968,2.968,0,0,1,8.776,2.839l1.758,2.255a2.973,2.973,0,0,1-.153,3.831A9.669,9.669,0,0,1,9.321,9.963c-.8.608,2.91,4.743,3.736,5.537.718.747,4.167,3.847,5.271,3.847a.314.314,0,0,0,.266-.111,9.583,9.583,0,0,1,1.038-1.061,2.972,2.972,0,0,1,3.831-.153l2.255,1.758a2.968,2.968,0,0,1,1.053,3.068c-.231.915-2.336,4.011-3.908,4.011H22.81a8.8,8.8,0,0,1-2.381-.783A34.459,34.459,0,0,1,2.481,8.127,8.815,8.815,0,0,1,1.7,5.746C1.627,4.17,4.783,2.02,5.708,1.786A2.963,2.963,0,0,1,6.435,1.7Z" transform="translate(0)" fill="#357a3b"/>
  </g>
</svg>
